<svg width="37" height="26" viewBox="0 0 37 26" fill="none" xmlns="http://www.w3.org/2000/svg">
<g clip-path="url(#clip0_16_179)">
<path d="M18.5 8.6665C16.8645 8.6665 15.296 9.12305 14.1395 9.93571C12.983 10.7484 12.3333 11.8506 12.3333 12.9998C12.3333 14.1491 12.983 15.2513 14.1395 16.064C15.296 16.8766 16.8645 17.3332 18.5 17.3332C20.1355 17.3332 21.704 16.8766 22.8605 16.064C24.017 15.2513 24.6667 14.1491 24.6667 12.9998C24.6667 11.8506 24.017 10.7484 22.8605 9.93571C21.704 9.12305 20.1355 8.6665 18.5 8.6665Z" fill="black"/>
<path fill-rule="evenodd" clip-rule="evenodd" d="M11.1 0C8.1561 0 5.33277 0.821783 3.25111 2.28457C1.16946 3.74735 0 5.73131 0 7.8L0 18.2C0 20.2687 1.16946 22.2526 3.25111 23.7154C5.33277 25.1782 8.1561 26 11.1 26H25.9C28.8439 26 31.6672 25.1782 33.7489 23.7154C35.8305 22.2526 37 20.2687 37 18.2V7.8C37 5.73131 35.8305 3.74735 33.7489 2.28457C31.6672 0.821783 28.8439 0 25.9 0L11.1 0ZM9.86667 13C9.86667 11.391 10.7762 9.84794 12.3953 8.71022C14.0144 7.5725 16.2103 6.93333 18.5 6.93333C20.7897 6.93333 22.9856 7.5725 24.6047 8.71022C26.2238 9.84794 27.1333 11.391 27.1333 13C27.1333 14.609 26.2238 16.1521 24.6047 17.2898C22.9856 18.4275 20.7897 19.0667 18.5 19.0667C16.2103 19.0667 14.0144 18.4275 12.3953 17.2898C10.7762 16.1521 9.86667 14.609 9.86667 13ZM27.1333 6.93333H29.6V5.2H27.1333V6.93333Z" fill="black"/>
</g>
<defs>
<clipPath id="clip0_16_179">
<rect width="37" height="26" fill="white"/>
</clipPath>
</defs>
</svg>
