<svg width="32" height="27" viewBox="0 0 32 27" fill="none" xmlns="http://www.w3.org/2000/svg">
<path d="M16 0C7.19999 0 0 6.08584 0 13.5813C0 20.3584 5.85599 25.9834 13.504 27V17.512H9.43999V13.5813H13.504V10.5858C13.504 7.18374 15.888 5.31325 19.552 5.31325C21.296 5.31325 23.12 5.57078 23.12 5.57078V8.91868H21.104C19.12 8.91868 18.496 9.96235 18.496 11.0331V13.5813H22.944L22.224 17.512H18.496V27C22.2663 26.4956 25.6995 24.8659 28.1758 22.4052C30.6522 19.9445 32.0085 16.8149 32 13.5813C32 6.08584 24.8 0 16 0Z" fill="black"/>
</svg>
